<?xml version="1.0" encoding="utf-8"?>
<!-- Generator: Adobe Illustrator 17.1.0, SVG Export Plug-In . SVG Version: 6.00 Build 0)  -->
<!DOCTYPE svg PUBLIC "-//W3C//DTD SVG 1.1//EN" "http://www.w3.org/Graphics/SVG/1.1/DTD/svg11.dtd">
<svg version="1.1" id="Layer_1" xmlns="http://www.w3.org/2000/svg" xmlns:xlink="http://www.w3.org/1999/xlink" x="0px" y="0px"
	 viewBox="0 0 278.4 70.7" enable-background="new 0 0 278.4 70.7" xml:space="preserve">
<g>
	<g>
		<path fill="#0769AD" d="M107.2,63c0,0.6-0.1,1.2-0.1,1.9l2.5-4.5l-0.3-1.5l2.5-0.4l0.9,6.3l1.1-3.9c0.1-0.4,0.1-0.7,0.1-1
			c0-0.3,0-0.6-0.1-1l2.6-0.5c0.1,0.5,0.2,1,0.1,1.5c0,0.6-0.2,1.3-0.6,2.4l-2.1,5.7h-3.1l-0.7-4.2l-2.4,4.2h-3c0.1-3.9,0-6.4-0.3-9
			l2.6-0.4C107.2,59.9,107.3,61.4,107.2,63z"/>
		<path fill="#0769AD" d="M123.4,60.8c-1.2,0.6-1.7,0.9-2.8,1.6l-1.2,5.5h-2.7l1.9-9.1l2.4-0.4l-0.1,1.3c0.9-0.5,1.7-0.9,2.5-1.3
			L123.4,60.8z"/>
		<path fill="#0769AD" d="M125,58.8l2.8-0.4l-2,9.5h-2.7L125,58.8z M125.9,54.7l2.8-0.4l-0.6,2.9l-2.8,0.4L125.9,54.7z"/>
		<path fill="#0769AD" d="M132.8,60.7l-1,4.6c0,0.1,0,0.2,0,0.2c0,0.1,0.1,0.2,0.3,0.2c0.5,0,1-0.2,1.5-0.4l0.5,1.9
			c-0.8,0.4-1.9,0.8-3,0.8c-1.4,0-2.1-0.7-2-1.8c0-0.1,0-0.3,0.1-0.4l1.1-5.2h-1.4l0.5-2.2h1.4l0.5-2.2l2.8-0.4l-0.5,2.6h2.2
			l-0.6,2.2H132.8z"/>
		<path fill="#0769AD" d="M136,61.9c0.5-2.1,1.5-3.5,4.4-3.5c1.8,0,3.1,0.8,3,2.3c-0.1,1.8-1,2.7-3.3,3.3c-1.1,0.3-1.2,0.3-2,0.6
			l-0.1,0.6c-0.1,0.3,0,0.7,0.5,0.7c1,0,2.4-0.5,3.7-1l0.4,1.9c-1.2,0.7-3,1.3-4.6,1.3c-1.9,0-2.7-0.8-2.7-2.4
			c0-0.3,0.1-0.7,0.2-1.1L136,61.9z M140.9,61c0-0.3-0.3-0.5-0.8-0.5c-1,0-1.3,0.6-1.4,1.3l-0.1,0.7c0.5-0.1,0.7-0.2,1.2-0.3
			C140.5,61.9,140.9,61.6,140.9,61z"/>
		<path fill="#0769AD" d="M150.4,54.8l2.8-0.4l-2.8,13.5h-2.7L150.4,54.8z"/>
		<path fill="#0769AD" d="M153.5,61.9c0.5-2.1,1.5-3.5,4.4-3.5c1.8,0,3.1,0.8,3,2.3c-0.1,1.8-1,2.7-3.3,3.3c-1.1,0.3-1.2,0.3-2,0.6
			l-0.1,0.6c-0.1,0.3,0,0.7,0.5,0.7c1,0,2.4-0.5,3.7-1l0.4,1.9c-1.2,0.7-3,1.3-4.6,1.3c-1.9,0-2.7-0.8-2.7-2.4
			c0-0.3,0.1-0.7,0.2-1.1L153.5,61.9z M158.4,61c0-0.3-0.3-0.5-0.8-0.5c-1,0-1.3,0.6-1.4,1.3l-0.1,0.7c0.5-0.1,0.7-0.2,1.2-0.3
			C158,61.9,158.4,61.6,158.4,61z"/>
		<path fill="#0769AD" d="M161.2,67.5l0.6-2c0.7,0.2,1.5,0.5,2.5,0.5c0.9,0,1-0.3,1.1-0.7c0.1-0.4-0.2-0.6-1.2-1.2
			c-1.9-1-2-1.7-1.7-3.1c0.4-2,1-2.5,3.6-2.5c0.9,0,2,0.2,2.8,0.4l-0.5,2c-0.7-0.2-1.7-0.3-2.3-0.3c-0.8,0-0.9,0.1-1,0.6
			c-0.1,0.4,0,0.5,0.9,1c2.1,1.1,2.4,1.5,2.1,3c-0.5,2.1-1.1,2.9-3.9,2.9C163.2,68.1,162,67.8,161.2,67.5z"/>
		<path fill="#0769AD" d="M168.9,67.5l0.6-2c0.7,0.2,1.5,0.5,2.5,0.5c0.9,0,1-0.3,1.1-0.7c0.1-0.4-0.2-0.6-1.2-1.2
			c-1.9-1-2-1.7-1.7-3.1c0.4-2,1-2.5,3.6-2.5c0.9,0,2,0.2,2.8,0.4l-0.5,2c-0.7-0.2-1.7-0.3-2.3-0.3c-0.8,0-0.9,0.1-1,0.6
			c-0.1,0.4,0,0.5,0.9,1c2.1,1.1,2.4,1.5,2.1,3c-0.5,2.1-1.1,2.9-3.9,2.9C170.9,68.1,169.7,67.8,168.9,67.5z"/>
		<path fill="#0769AD" d="M176.3,70l1.5-2.1h-1l0.7-3.2h2.7l-0.7,3.4l-2.2,2.6L176.3,70z"/>
		<path fill="#0769AD" d="M191,67.9l0-0.8c-0.7,0.6-1.7,1-3,1c-2,0-2.5-1.2-2-3.3l0.5-2.5c0.5-2.2,1.1-3.9,5-3.9
			c0.3,0,0.9,0,1.1,0.1l0.8-3.7l2.8-0.4l-2.8,13.5H191z M188.5,65.1c-0.1,0.5,0,0.7,0.5,0.7c1,0,1.7-0.5,2.2-1l0.9-4.1
			c-0.3-0.1-0.7-0.1-1-0.1c-1.4,0-1.7,0.7-1.9,1.6L188.5,65.1z"/>
		<path fill="#0769AD" d="M195.8,65c0-0.2,0-0.4,0.1-0.7l0.5-2.2c0.5-2.4,1.7-3.8,5-3.8c2.5,0,3.6,1.4,3.5,3.1c0,0.2,0,0.4-0.1,0.7
			l-0.5,2.2c-0.5,2.2-1.6,3.8-5,3.8C196.9,68.1,195.7,66.7,195.8,65z M202.1,61.7c0-0.7-0.4-1.1-1.3-1.1c-1,0-1.6,0.5-1.8,1.4
			l-0.5,2.3c0,0.1,0,0.3-0.1,0.4c0,0.7,0.4,1.1,1.3,1.1c1,0,1.6-0.5,1.8-1.4l0.5-2.3C202.1,61.9,202.1,61.8,202.1,61.7z"/>
		<path fill="#0769AD" d="M221.3,61.6c0-0.1,0-0.2,0-0.3c0-0.2-0.1-0.3-0.4-0.3c-0.5,0-1.7,0.5-2.5,0.9l-1.3,6h-2.7l1.3-6.3
			c0-0.1,0-0.2,0-0.3c0-0.2-0.1-0.3-0.4-0.3c-0.5,0-1.7,0.5-2.4,0.9l-1.3,6h-2.7l1.9-9.1l2.4-0.4l-0.1,1c1.5-0.7,2.6-1.1,3.7-1.1
			c0.9,0,1.4,0.4,1.6,1.1c1.4-0.8,2.7-1.1,3.8-1.1c1.2,0,1.7,0.7,1.6,1.9c0,0.3,0,0.7-0.1,1.1l-1.4,6.5H220L221.3,61.6z"/>
		<path fill="#0769AD" d="M225.1,65c0-0.2,0-0.4,0.1-0.7l0.5-2.2c0.5-2.4,1.7-3.8,5-3.8c2.5,0,3.6,1.4,3.5,3.1c0,0.2,0,0.4-0.1,0.7
			l-0.5,2.2c-0.5,2.2-1.6,3.8-5,3.8C226.2,68.1,225,66.7,225.1,65z M231.4,61.7c0-0.7-0.4-1.1-1.3-1.1c-1,0-1.6,0.5-1.8,1.4
			l-0.5,2.3c0,0.1,0,0.3-0.1,0.4c0,0.7,0.4,1.1,1.3,1.1c1,0,1.6-0.5,1.8-1.4l0.5-2.3C231.4,61.9,231.4,61.8,231.4,61.7z"/>
		<path fill="#0769AD" d="M241.2,60.8c-1.2,0.6-1.7,0.9-2.8,1.6l-1.2,5.5h-2.7l1.9-9.1l2.4-0.4l-0.1,1.3c0.9-0.5,1.7-0.9,2.5-1.3
			L241.2,60.8z"/>
		<path fill="#0769AD" d="M241.9,61.9c0.5-2.1,1.5-3.5,4.4-3.5c1.8,0,3.1,0.8,3,2.3c-0.1,1.8-1,2.7-3.3,3.3c-1.1,0.3-1.2,0.3-2,0.6
			l-0.1,0.6c-0.1,0.3,0,0.7,0.5,0.7c1,0,2.4-0.5,3.7-1l0.4,1.9c-1.2,0.7-3,1.3-4.6,1.3c-1.9,0-2.7-0.8-2.7-2.4
			c0-0.3,0.1-0.7,0.2-1.1L241.9,61.9z M246.8,61c0-0.3-0.3-0.5-0.8-0.5c-1,0-1.3,0.6-1.4,1.3l-0.1,0.7c0.5-0.1,0.7-0.2,1.2-0.3
			C246.4,61.9,246.7,61.6,246.8,61z"/>
		<path fill="#0769AD" d="M250.4,64.7h2.7l-0.7,3.2h-2.7L250.4,64.7z"/>
	</g>
</g>
<path fill="#0769AD" d="M3.3,13.4c-4.6,6.5-4,15.1-0.5,22C2.8,35.6,2.9,35.8,3,36c0,0.1,0.1,0.2,0.2,0.3c0,0.1,0.1,0.1,0.1,0.2
	c0.1,0.1,0.1,0.2,0.2,0.3c0.1,0.2,0.2,0.4,0.3,0.6c0.1,0.1,0.1,0.2,0.2,0.3c0.1,0.2,0.3,0.4,0.4,0.6c0.1,0.1,0.1,0.2,0.2,0.3
	c0.2,0.3,0.4,0.5,0.6,0.8c0,0,0,0,0,0c0,0,0.1,0.1,0.1,0.1c0.2,0.2,0.3,0.5,0.5,0.7c0.1,0.1,0.1,0.2,0.2,0.2
	c0.2,0.2,0.3,0.4,0.5,0.6c0.1,0.1,0.1,0.1,0.2,0.2c0.2,0.3,0.4,0.5,0.7,0.7c0,0,0,0,0,0c0,0,0,0,0,0c0.2,0.2,0.4,0.5,0.7,0.7
	c0.1,0.1,0.1,0.1,0.2,0.2c0.2,0.2,0.3,0.3,0.5,0.5c0.1,0.1,0.1,0.1,0.2,0.2c0.2,0.2,0.5,0.4,0.7,0.7c0,0,0,0,0,0
	c0,0,0.1,0.1,0.1,0.1c0.2,0.2,0.4,0.4,0.7,0.6c0.1,0.1,0.2,0.1,0.3,0.2c0.2,0.1,0.4,0.3,0.6,0.4c0.1,0.1,0.2,0.1,0.3,0.2
	c0.2,0.2,0.4,0.3,0.6,0.4c0.1,0.1,0.1,0.1,0.2,0.2c0,0,0,0,0.1,0c0.2,0.1,0.4,0.3,0.6,0.4c0.1,0.1,0.2,0.1,0.3,0.2
	c0.3,0.2,0.6,0.4,0.9,0.6c0.1,0,0.2,0.1,0.3,0.1c0.2,0.1,0.5,0.3,0.7,0.4c0.1,0.1,0.3,0.1,0.4,0.2c0.2,0.1,0.3,0.2,0.5,0.3
	c0,0,0.1,0,0.1,0.1c0.1,0,0.1,0.1,0.2,0.1c0.3,0.1,0.5,0.3,0.8,0.4c0.1,0,0.1,0,0.2,0.1c0.3,0.1,0.6,0.3,0.9,0.4
	c0.1,0,0.1,0.1,0.2,0.1c0.3,0.1,0.6,0.2,0.9,0.3c0,0,0.1,0,0.1,0c0.3,0.1,0.7,0.2,1,0.3c0.1,0,0.2,0.1,0.2,0.1
	c0.3,0.1,0.7,0.2,1,0.3c22,4,28.4-13.2,28.4-13.2c-5.4,7-14.9,8.8-24,6.8c-0.3-0.1-0.7-0.2-1-0.3c-0.1,0-0.2,0-0.2-0.1
	c-0.3-0.1-0.7-0.2-1-0.3c0,0-0.1,0-0.1-0.1c-0.3-0.1-0.6-0.2-0.9-0.3c-0.1,0-0.2-0.1-0.2-0.1c-0.3-0.1-0.6-0.3-0.9-0.4
	c-0.1,0-0.1-0.1-0.2-0.1c-0.3-0.1-0.5-0.2-0.8-0.4c-0.1,0-0.1-0.1-0.2-0.1c-0.2-0.1-0.4-0.2-0.6-0.3c-0.1-0.1-0.3-0.1-0.4-0.2
	c-0.2-0.1-0.5-0.3-0.7-0.4c-0.1-0.1-0.2-0.1-0.2-0.1c-0.3-0.2-0.6-0.4-0.9-0.6c-0.1-0.1-0.2-0.1-0.3-0.2c-0.2-0.1-0.5-0.3-0.7-0.4
	c-0.1-0.1-0.1-0.1-0.2-0.2c-0.2-0.1-0.4-0.3-0.6-0.5c-0.1-0.1-0.2-0.1-0.3-0.2c-0.2-0.1-0.4-0.3-0.6-0.4c-0.1-0.1-0.2-0.1-0.3-0.2
	c-0.2-0.2-0.5-0.4-0.7-0.6c0,0-0.1,0-0.1-0.1c-0.2-0.2-0.5-0.5-0.7-0.7c-0.1-0.1-0.1-0.1-0.2-0.2c-0.2-0.2-0.4-0.3-0.5-0.5
	c-0.1-0.1-0.1-0.1-0.2-0.2c-0.2-0.2-0.4-0.5-0.7-0.7c0,0,0,0,0,0c-0.2-0.2-0.4-0.5-0.7-0.8c-0.1-0.1-0.1-0.1-0.2-0.2
	c-0.2-0.2-0.3-0.4-0.5-0.6c-0.1-0.1-0.1-0.1-0.2-0.2C10,33.5,9.8,33.2,9.6,33c-5-6.8-6.8-16.3-2.8-24"/>
<path fill="#0769AD" d="M17.4,7.9C14.1,12.7,14.3,19,16.9,24c0.4,0.8,0.9,1.7,1.5,2.4c0.5,0.7,1,1.5,1.7,2.1
	c0.2,0.3,0.5,0.5,0.7,0.8c0.1,0.1,0.1,0.1,0.2,0.2c0.2,0.2,0.5,0.5,0.8,0.7c0,0,0,0,0,0c0,0,0,0,0,0c0.3,0.3,0.6,0.5,0.9,0.7
	c0.1,0.1,0.1,0.1,0.2,0.2c0.3,0.2,0.6,0.5,0.9,0.7c0,0,0,0,0,0c0.1,0.1,0.3,0.2,0.4,0.3c0.1,0,0.1,0.1,0.2,0.1
	c0.2,0.1,0.5,0.3,0.7,0.4c0,0,0.1,0,0.1,0.1c0.2,0.1,0.4,0.2,0.6,0.3c0.1,0,0.1,0.1,0.2,0.1c0.1,0.1,0.3,0.1,0.4,0.2c0,0,0,0,0.1,0
	c0.3,0.1,0.6,0.3,0.9,0.4c0.1,0,0.1,0.1,0.2,0.1c0.2,0.1,0.5,0.2,0.7,0.3c0.1,0,0.2,0.1,0.3,0.1c0.2,0.1,0.4,0.2,0.7,0.2
	c0.1,0,0.2,0.1,0.3,0.1c0.3,0.1,0.6,0.2,1,0.3c17,2.8,20.9-10.3,20.9-10.3c-3.5,5.1-10.4,7.5-17.7,5.6c-0.3-0.1-0.6-0.2-1-0.3
	c-0.1,0-0.2-0.1-0.3-0.1c-0.2-0.1-0.5-0.1-0.7-0.2c-0.1,0-0.2-0.1-0.3-0.1c-0.2-0.1-0.5-0.2-0.7-0.3c-0.1,0-0.1-0.1-0.2-0.1
	c-0.3-0.1-0.6-0.3-0.9-0.4c-0.1-0.1-0.3-0.2-0.4-0.2c-0.1,0-0.2-0.1-0.3-0.1c-0.2-0.1-0.4-0.2-0.6-0.3c0,0-0.1,0-0.1-0.1
	c-0.2-0.1-0.5-0.3-0.7-0.4c-0.1,0-0.1-0.1-0.2-0.1c-0.1-0.1-0.3-0.2-0.4-0.3c-0.3-0.2-0.6-0.4-0.9-0.7c-0.1-0.1-0.1-0.1-0.2-0.2
	c-3.2-2.5-5.7-6-6.9-9.9c-1.3-4.1-1-8.6,1.2-12.3"/>
<path fill="#0769AD" d="M29.3,3.8c-1.9,2.9-2.1,6.4-0.8,9.6c1.4,3.4,4.3,6,7.7,7.2c0.1,0.1,0.3,0.1,0.4,0.1c0.1,0,0.1,0,0.2,0.1
	c0.2,0.1,0.4,0.1,0.6,0.2c9.4,1.8,11.9-4.8,12.6-5.8c-2.2,3.2-6,4-10.6,2.9c-0.4-0.1-0.8-0.2-1.1-0.3c-0.4-0.2-0.9-0.3-1.3-0.5
	c-0.8-0.4-1.6-0.9-2.3-1.4c-4.1-3.1-6.7-9.1-4-13.9"/>
<path fill="#333333" d="M247,17.2l0.4,1.6c0.1,0.4-0.2,0.8-0.6,0.8"/>
<path fill="#333333" d="M217.4,14.5c-0.1,0.4-0.2,1-0.3,1.3l-3.3,15.2l3.4-16L217.4,14.5z"/>
<polygon fill="#333333" points="120,24.7 118.2,31.1 120,24.7 "/>
<path fill="#333333" d="M247.4,18.8l-0.9-4c-0.7-2.9-2.8-4.2-7.5-4.2h-19.8c-0.5,0-0.9,0.2-1,0.7l-7.5,35.6c-0.1,0.5-0.1,0.8-0.1,1
	c0.1,0.2,0.9,0.2,1.4,0.2h6.9c0.5,0,1.3,0,1.5-0.1c0.3-0.1,0.4-0.8,0.5-1.2l2.4-12.5l3-13.9c0.1-0.4,0.5-0.8,1-0.8l19.6,0
	C247.2,19.6,247.5,19.2,247.4,18.8"/>
<path fill="#333333" d="M275.3,4.3c-0.5,0-8.7,0-8.7,0c-0.5,0-1,0.5-1.3,0.9L250,27.6c-0.3,0.4-0.6,0.4-0.7-0.1l-1.1-4.9
	c-0.1-0.4-0.6-0.8-1-0.8h-9.8c-0.5,0-0.7,0.4-0.6,0.8l4.4,15.4c0.1,0.4,0.1,1.2,0,1.6l-2.1,7.8c-0.1,0.4,0.2,0.6,0.6,0.6h9.7
	c0.5,0,0.9-0.1,1-0.6l2.1-7.9c0.1-0.4,0.4-1,0.7-1.4l24.9-33c0.3-0.4,0.2-0.8-0.2-0.8L275.3,4.3z"/>
<path fill="#333333" d="M173.1,10.6h-8.9c-0.5,0-0.9,0.2-1,0.6l-2.9,13.7L157.4,38c-0.1,0.4-0.5,0.4-1,0.4h-5.8
	c-5.8,0-5.1-3.6-3.9-9.1c0-0.1,3.7-18.1,3.7-18.1c0.1-0.4-0.2-0.6-0.7-0.6h-8.4c-0.5,0-0.9,0.2-1,0.6l-3.4,18.1
	c-1.7,9.8-1.7,18.4,9.6,18.7c0.2,0,17.9,0,17.9,0c0.5,0,0.9-0.2,1-0.6l3.9-18.2l3.8-18.2C173.1,11,173.3,10.6,173.1,10.6z"/>
<path fill="#333333" d="M84.9,10.6h-9.5c-0.5,0-0.9,0.1-1,0.6l-1.7,7.4c-0.1,0.4,0.2,0.8,0.7,0.8h9.1c0.5,0,0.9-0.4,1-0.9l1.6-7.5
	C85.1,11,85.3,10.6,84.9,10.6z"/>
<path fill="#333333" d="M72.8,21.8c-0.5,0-0.9,0.4-1,0.8l-1.3,5.7l-2.9,13.1c0,0-1.5,6.9-1.7,7.4c0,0-1.3,5-4.3,4.8
	c-1.4-0.1-3-0.4-3-0.4h0c-0.9-0.3-0.9,0.6-1,1.1l-1.9,8.1c-0.1,0.4,0.2,0.8,0.6,0.9c0,0,4.1,0.6,7,0.6h0.5c7.1,0,10.9-4.2,13.3-15.6
	L79.9,35l2.6-12.3c0.1-0.4-0.2-0.9-0.6-0.9"/>
<path fill="#333333" d="M195.5,10.5c-16,0-19.8,9.9-21.9,19.6c-2.1,10-1.9,17.9,14.6,17.9h0.6c6.6,0,14.5,0,14.5,0
	c0.4,0,0.9-0.4,1-0.9l1.6-6.3c0.1-0.4-0.2-0.6-0.7-0.6h-14.9c-5.4,0-7.3-1.7-7.1-5.4c0-0.4,0.5-1.5,0.9-1.5h22.9c1,0,1-0.6,1-0.6
	C210.5,22.3,210.6,10.5,195.5,10.5 M199.7,26.2c0,0.5-1.6,0.4-1.6,0.4l-12.4-0.1c-0.4,0-0.6-0.6-0.6-1c0,0,0-0.5,0.1-0.6
	c1-3.3,3.8-5.2,8.4-5.2c5.1,0,6.2,2.5,6.2,5.4"/>
<path fill="#333333" d="M126.5,37.7c0,0,4.5-10.9,5.5-17.1c1.4-8.4-2.8-20.6-19.1-20.6C96.8,0,89.8,11.6,87.1,24.3
	C84.4,37,87.9,48.1,104,48l24.5,0c0.5,0,0.9-0.4,1-0.8l2.1-7.9c0.1-0.4-0.2-0.8-0.6-0.8l-2,0l-2,0c-0.4,0-0.6-0.3-0.6-0.6
	C126.5,37.9,126.5,37.8,126.5,37.7 M118.1,31.1l-1.8,6.3c-0.1,0.4-0.6,0.7-1.1,0.7h-9.5c-7.2,0-9-5.6-7.2-13.9
	c1.8-8.5,5.2-13.7,12.3-14.3c9.7-0.7,11.7,6.1,9.3,14L118.1,31.1z"/>
<g>
</g>
<g>
</g>
<g>
</g>
<g>
</g>
<g>
</g>
<g>
</g>
</svg>
